<svg width="469" height="358" viewBox="0 0 469 358" fill="none" xmlns="http://www.w3.org/2000/svg">
<g filter="url(#filter0_d_1335_236)">
<path fill-rule="evenodd" clip-rule="evenodd" d="M169.739 69.9996L169.539 70.1996C168.134 71.6996 166.529 72.3996 165.024 72.3996L167.833 67.4996C169.639 64.3996 167.933 61.3996 165.124 61.3996C162.817 61.3996 161.011 62.2996 159.305 65.2996L157.8 67.8996L156.596 69.9996L156.396 70.1996C154.189 72.6996 152.082 74.6996 150.777 74.6996C150.075 74.6996 149.774 74.1996 150.477 73.0996L156.897 61.8996H159.305L160.208 60.4996H157.7L160.509 55.5996H157.499L154.69 60.4996H151.981L151.078 61.8996H153.787L147.768 72.2996C146.463 74.4996 147.366 76.5996 149.774 76.5996C151.48 76.5996 153.486 75.2996 155.292 73.4996C155.292 77.2996 160.609 78.0996 163.82 73.9996H164.522C166.328 73.9996 169.137 72.8996 170.642 71.0996C170.642 70.5996 170.141 70.1996 169.739 69.9996ZM163.318 70.1996H163.218C162.215 70.1996 161.412 70.9996 161.412 71.9996C161.412 72.3996 161.512 72.6996 161.713 72.9996V73.0996C160.309 75.4996 156.897 75.0996 158.603 71.8996L160.91 67.9996L162.315 65.5996C164.422 61.9996 167.331 63.3996 165.525 66.4996L163.318 70.1996ZM211.375 69.9996L211.174 70.1996C208.967 72.6996 206.258 74.6996 204.151 74.6996C202.345 74.6996 201.242 73.4996 202.546 71.0996L202.847 70.5996C204.753 71.3996 208.465 70.9996 210.672 67.0996L211.074 66.3996C212.679 63.5996 211.174 61.5996 208.666 61.5996C206.258 61.5996 204.352 62.8996 203.048 65.0996L200.138 70.0996L199.938 70.2996C197.73 72.7996 195.623 74.7996 194.319 74.7996C193.617 74.7996 193.316 74.2996 194.018 73.1996L198.332 65.5996C199.637 63.2996 198.433 61.6996 196.727 61.6996C195.423 61.6996 194.018 62.3996 192.513 63.9996L197.329 55.6996H194.319L185.992 69.9996L185.791 70.1996C183.584 72.6996 181.477 74.6996 180.173 74.6996C179.471 74.6996 179.17 74.1996 179.872 73.0996L186.293 61.8996H188.701L189.604 60.4996H187.096L189.905 55.5996H186.895L184.086 60.4996H181.377L180.474 61.8996H183.183L177.163 72.2996C175.859 74.4996 176.762 76.5996 179.17 76.5996C180.374 76.5996 181.678 75.9996 182.982 74.9996L182.18 76.2996H185.19L189.704 68.3996C194.319 62.5996 196.326 63.3996 195.122 65.5996L191.209 72.3996C189.905 74.5996 190.808 76.6996 193.216 76.6996C195.022 76.6996 197.028 75.2996 198.834 73.4996C198.934 75.3996 200.539 76.6996 202.947 76.6996C206.358 76.6996 209.77 74.0996 212.177 71.1996C212.278 70.5996 211.776 70.1996 211.375 69.9996ZM205.656 65.7996C207.362 62.7996 210.472 63.2996 208.666 66.3996L208.265 67.0996C206.86 69.4996 204.854 69.4996 203.75 69.0996L205.656 65.7996ZM320.63 70.2L320.831 70C321.332 70.1 321.834 70.6 321.934 71.1C319.727 73.7 316.717 76.1 313.607 76.5H313.507C313.206 76.6 313.005 76.6 312.704 76.6C309.895 76.6 309.394 74.2 309.394 74.2L311.3 73.2C311.3 73.2 311.701 74.3 312.704 74.3C314.627 74.3 314.972 71.8542 315.333 69.3006C315.518 67.9902 315.707 66.6513 316.115 65.6C315.763 66.0472 315.369 66.5659 314.942 67.1299L314.941 67.1301L314.94 67.1321C314.029 68.3332 312.961 69.7397 311.801 71.1C309.293 74 306.484 76.6 303.976 76.6C302.07 76.6 301.066 75.3 301.367 73.7C299.963 75.1 298.057 76.6 296.451 76.6C294.746 76.6 294.044 75.2 294.846 73.1C293.743 73.7 292.438 74 291.535 74H290.833C287.623 78.1 282.205 77.3 282.305 73.4C280.299 75.2 277.791 76.6 275.383 76.6C272.875 76.6 271.37 75.3 271.27 73.4C268.761 75.8 266.354 77.2 263.946 78L261.638 81.9C259.431 85.6 255.017 85 255.017 82.1C255.017 79.9 257.625 78.2 261.638 77L262.34 75.8C261.237 76.4 260.234 76.8 259.431 76.8C257.725 76.8 256.823 75.8 256.823 74.4C255.217 75.8 253.512 76.8 252.007 76.8C249.599 76.8 248.696 74.7 250 72.5L253.211 67C253.512 66.4 253.411 65.8 253.01 65.3L252.609 64.8C250.201 68 248.997 69.5 247.592 71.2C246.088 73 243.278 74.1 241.473 74.1H240.77C237.56 78.2 232.243 77.4 232.243 73.6C229.734 75.9 227.427 77.4 225.019 78.1L222.712 82C220.504 85.7 216.09 85.1 216.09 82.2C216.09 80 218.698 78.3 222.712 77.1L223.514 75.7C222.411 76.3 221.407 76.7 220.605 76.7C218.197 76.7 217.294 74.6 218.598 72.4L222.812 65.1C224.016 62.9 226.323 61.6 227.928 61.6C229.734 61.6 231.039 63.3 231.039 64.5H232.845L226.123 76C228.53 75 230.637 73.2 233.145 70.3L233.346 70.1L234.55 68L236.055 65.4C237.76 62.4 239.566 61.5 241.874 61.5C244.683 61.5 246.389 64.5 244.583 67.6L241.774 72.5C243.278 72.5 244.884 71.8 246.288 70.3L246.489 70.1C248.495 67.8 250.301 65.3 251.606 63.4L251.305 63.1C250.301 61.7 250.402 60 252.107 58.5L253.712 60.2C253.11 60.7 253.11 61.4 253.512 61.9L255.217 63.9C256.12 65.1 256.622 66.2 255.619 68L252.609 73.2C251.907 74.3 252.208 74.8 252.91 74.8C254.214 74.8 256.321 72.8 258.528 70.3L258.729 70.1L261.638 65.1C262.842 62.9 265.15 61.6 266.755 61.6C268.561 61.6 269.865 63.3 269.865 64.5H271.671L264.949 76C267.357 75 269.464 73.2 271.972 70.3L272.172 70.1L275.082 65.1C276.386 62.9 278.292 61.6 280.7 61.6C283.208 61.6 284.713 63.6 283.108 66.4L282.707 67.1C280.5 71 276.788 71.4 274.881 70.6L274.58 71.1C273.276 73.5 274.38 74.7 276.186 74.7C278.292 74.7 281.001 72.7 283.208 70.2L283.409 70L284.613 67.9L286.118 65.3C287.823 62.3 289.629 61.4 291.937 61.4C294.746 61.4 296.451 64.4 294.646 67.5L291.836 72.4C293.341 72.4 294.947 71.7 296.351 70.2L296.552 70L301.267 61.9H304.277L298.458 72.1L298.421 72.164L298.372 72.2487C297.967 72.9466 297.402 73.9205 298.057 74.2C298.659 74.4 300.364 73.3 302.672 71.2L307.989 61.9H310.999L304.578 73.1C303.876 74.2 304.177 74.7 304.879 74.7C306.183 74.7 308.29 72.7 310.497 70.2L310.698 70C313.296 67.0408 315.807 63.4831 317.123 61.62L317.134 61.6036C317.237 61.4583 317.332 61.3233 317.42 61.2L319.627 62.4C318.48 64.7455 318.132 67.2356 317.819 69.4789C317.611 70.9657 317.418 72.3441 317.018 73.5C318.222 72.6 319.527 71.5 320.63 70.2ZM280.801 66.4C282.606 63.3 279.496 62.8 277.791 65.8L275.885 69.1C276.988 69.5 278.995 69.5 280.399 67.1L280.801 66.4ZM218.799 81.5C218.799 82.4 219.802 82.5 220.404 81.4L221.809 78.9C219.501 79.8 218.799 80.7 218.799 81.5ZM221.508 73.1C220.805 74.2 221.106 74.7 221.809 74.7C223.013 74.7 224.919 73.3 226.725 70.4L229.032 66.4C230.537 63.7 227.327 63 225.721 65.8L221.508 73.1ZM240.168 70.2H240.269L242.476 66.5C244.282 63.4 241.372 62 239.265 65.6L237.861 68L235.553 71.9C233.848 75.1 237.259 75.5 238.663 73.1V73C238.463 72.7 238.362 72.4 238.362 72C238.362 71 239.165 70.2 240.168 70.2ZM257.525 81.5C257.525 82.4 258.528 82.5 259.13 81.4L260.535 78.9C258.227 79.8 257.525 80.7 257.525 81.5ZM260.234 73.1C259.531 74.2 259.832 74.7 260.535 74.7C261.739 74.7 263.645 73.3 265.451 70.4L267.758 66.4C269.263 63.7 266.053 63 264.447 65.8L260.234 73.1ZM290.031 70.2H290.131L292.338 66.5C294.144 63.4 291.234 62 289.128 65.6L287.723 68L285.416 71.9C283.71 75.1 287.121 75.5 288.526 73.1V73C288.325 72.7 288.225 72.4 288.225 72C288.225 71 289.027 70.2 290.031 70.2ZM134.525 66.7998H105.53V68.7998H134.525V66.7998ZM333.271 66.7998H362.266V68.7998H333.271V66.7998Z" fill="#766458"/>
<path fill-rule="evenodd" clip-rule="evenodd" d="M167.532 0H175.257L174.053 44.9H159.506L157.499 26.4L155.493 44.9H140.845L139.742 0H147.367L147.968 37.2H148.771L153.687 0H161.312L166.228 37.2H167.03L167.532 0ZM199.436 37.2V45H178.468V0H199.436V7.7H186.093V18.5H196.727V26.2H186.093V37.1H199.436V37.2ZM220.906 45V37.2H210.171V0H202.546V45H220.906ZM237.159 28.4L244.884 26.6V40.2C244.884 42.8 242.677 44.9 240.169 44.9H228.631C226.023 44.9 223.916 42.7 223.916 40.2V4.7C223.916 2.1 226.023 0 228.631 0H240.169C242.677 0 244.884 2.1 244.884 4.7V13.8L237.159 15.6V7.6H231.641V37.1H237.159V28.4ZM270.467 4.7C270.467 2.1 268.26 0 265.752 0H254.214C251.606 0 249.499 2.1 249.499 4.7V40.1C249.499 42.6 251.606 44.8 254.214 44.8H265.752C268.26 44.8 270.467 42.7 270.467 40.1V4.7ZM257.224 7.7H262.742V37.2H257.224V7.7ZM295.549 0H303.173V44.9H295.549V22.8L292.439 34.2H284.914L281.904 22.8V44.9H274.279V0H281.904L288.726 21.7L295.549 0ZM327.954 45V37.2V37.1H314.611V26.2H325.245V18.5H314.611V7.7H327.954V0H306.986V45H327.954Z" fill="#81B3D3"/>
<path fill-rule="evenodd" clip-rule="evenodd" d="M250.101 215.7C274.179 215.7 291.636 198.6 291.636 174.4C291.636 151.8 271.671 135.9 250.101 135.9C228.531 135.9 208.566 151.8 208.566 174.4C208.566 198.6 226.022 215.7 250.101 215.7ZM250 196.8C238.363 196.8 228.832 187.4 228.832 174.5C228.832 164.2 238.463 154.7 250 154.7C261.638 154.7 271.169 164.2 271.169 174.5C271.169 187.4 261.638 196.8 250 196.8ZM35.5025 152.6C40.3182 152.6 44.8329 154.6 48.4446 157.6L56.1698 142.6C49.5482 138.8 40.2178 136.4 32.6934 136.4C17.6444 136.4 6.80914 146.3 6.80914 161.5C6.80914 176 14.8353 179.1 27.0751 182.7C27.3156 182.769 27.5672 182.839 27.8278 182.912L27.8316 182.913C32.1382 184.119 38.9136 186.016 38.9136 191.2C38.9136 196.4 34.0979 198.7 29.4829 198.7C22.761 198.7 17.0424 195.3 12.1264 191L4 206.5C11.6248 211.8 20.9552 215 30.3859 215C37.9103 215 45.7358 213 51.6551 208C57.5743 203 59.3802 195.3 59.3802 187.9C59.3802 175.8 51.2538 170.6 40.8198 167.5L35.8035 166C32.4927 165 27.1754 163.3 27.1754 158.9C27.1754 154.7 31.8908 152.6 35.5025 152.6ZM95.899 167.3V154.8L119.175 154.9V138.4H76.4357V213.2H119.175V196.7H95.899V183.8H117.87V167.3H95.899ZM133.622 138.4H161.312C182.18 138.4 199.436 154.8 199.436 175.8C199.436 196.8 182.079 213.2 161.312 213.2H133.622V138.4ZM153.185 196.7H157.6C169.238 196.7 179.17 190.3 179.17 175.8C179.17 162.4 170.341 154.9 157.8 154.9H153.185V196.7ZM301.97 138.4H321.533L357.249 184.2H357.45V138.4H377.014V213.2H357.45L321.734 167.3H321.533V213.2H301.97V138.4ZM407.212 213.2L412.429 200.2H439.317L444.233 213.2H465L436.708 138.4H415.439L386.545 213.2H407.212ZM425.873 161.5H426.073L434.1 185.3H417.847L425.873 161.5Z" fill="white"/>
<path fill-rule="evenodd" clip-rule="evenodd" d="M84.4617 277.6C84.4617 277.9 84.3614 278.2 84.261 278.5C84.1607 278.8 83.9601 279.1 83.7594 279.3C83.5588 279.5 83.258 279.7 82.9571 279.9L82.9568 279.9C82.6558 280 82.2545 280.1 81.8532 280.1C81.3516 280.1 80.9503 280 80.549 279.8L80.5487 279.8C80.1475 279.6 79.7463 279.4 79.4454 279.1C79.2072 278.863 79.0947 278.625 78.9587 278.339C78.9228 278.263 78.8853 278.184 78.8434 278.1C78.7431 277.7 78.6428 277.3 78.6428 276.8C78.6428 275.9 78.8434 275.2 79.1444 274.4C79.4454 273.7 79.8467 273 80.4486 272.5C80.6493 272.3 80.9503 272 81.2512 271.8C81.5522 271.6 81.8532 271.4 82.1542 271.3C82.3431 271.237 82.4925 271.135 82.6272 271.043C82.7071 270.988 82.7818 270.937 82.8565 270.9C82.9331 270.862 82.9951 270.838 83.0481 270.818C83.1338 270.786 83.1958 270.762 83.2578 270.7L84.6623 272.7C84.602 272.73 84.5326 272.76 84.4569 272.793L84.4552 272.794C84.2794 272.87 84.0696 272.961 83.8597 273.1C83.5588 273.2 83.2578 273.4 82.9568 273.6C82.6558 273.8 82.4552 274.1 82.2545 274.4C82.0539 274.7 81.9535 275 81.9535 275.4C82.6558 275.4 83.1574 275.6 83.6591 276C84.261 276.3 84.4617 276.9 84.4617 277.6ZM92.3875 277.6C92.3875 277.9 92.2872 278.2 92.1868 278.5C92.0865 278.8 91.8858 279.1 91.6852 279.3C91.4846 279.5 91.1838 279.7 90.8829 279.9L90.8826 279.9C90.5816 280 90.1803 280.1 89.779 280.1C89.2774 280.1 88.8761 280 88.4748 279.8C88.0734 279.6 87.6721 279.4 87.3712 279.1C87.1705 278.8 86.9699 278.5 86.7692 278.1C86.6689 277.7 86.5686 277.3 86.5686 276.8C86.5686 275.9 86.7692 275.2 87.0702 274.4C87.3712 273.7 87.7725 273 88.3744 272.5C88.5751 272.3 88.8761 272 89.177 271.8C89.478 271.6 89.779 271.4 90.08 271.3C90.2689 271.237 90.4183 271.135 90.553 271.043C90.6329 270.988 90.7076 270.937 90.7823 270.9C90.8589 270.862 90.9209 270.838 90.9739 270.818C91.0596 270.786 91.1216 270.762 91.1836 270.7L92.5881 272.7C92.5278 272.73 92.4584 272.76 92.3827 272.793L92.381 272.794C92.2052 272.87 91.9954 272.961 91.7855 273.1C91.4845 273.2 91.1836 273.4 90.8826 273.6C90.5816 273.8 90.381 274.1 90.1803 274.4C89.9797 274.7 89.8793 275 89.8793 275.4C90.5816 275.4 91.0832 275.6 91.5849 276C92.0865 276.3 92.3875 276.9 92.3875 277.6ZM368.085 296.1L368.386 295.8C368.676 295.916 369.032 296.165 369.359 296.393L369.36 296.393L369.36 296.394C369.599 296.56 369.822 296.716 369.991 296.8C366.781 300.4 363.169 303.8 360.059 303.8C358.152 303.8 356.949 302.8 356.748 301.3C354.842 302.8 352.936 303.8 351.431 303.8C349.123 303.8 347.919 302.4 348.12 300.5C345.913 302.4 343.705 303.8 341.699 303.8C338.589 303.8 337.485 301.2 339.09 298.4L344.006 289.8C345.712 287 343.104 286 337.285 293.3L331.466 303.4H327.653L329.058 301C327.152 302.7 325.145 303.8 323.339 303.8C321.433 303.8 320.229 302.8 320.028 301.3C318.122 302.8 316.216 303.8 314.711 303.8C312.504 303.8 311.4 302.5 311.4 300.8C309.394 302.6 307.287 303.8 305.381 303.8C302.271 303.8 301.167 301.2 302.772 298.4L306.785 291.4C307.287 290.6 307.086 289.8 306.585 289.2L306.083 288.6L305.615 289.228L305.614 289.23C303.017 292.711 301.675 294.511 300.063 296.4C300.102 296.477 300.125 296.538 300.146 296.591L300.146 296.591C300.178 296.677 300.202 296.739 300.264 296.8C296.05 301.7 292.138 304.4 288.225 305.6L285.315 310.6C282.607 315.3 276.988 314.5 276.988 310.9C276.988 308 280.199 306 285.315 304.4L286.319 302.7C285.215 303.4 283.811 303.9 282.205 303.9C276.788 303.9 276.286 298.8 278.995 294.2L280.099 292.2C276.988 290.6 275.283 287.7 275.283 284.7C275.283 282.1 276.487 279.5 279.196 277.6L280.4 279.8C278.794 281.1 277.992 282.8 277.992 284.6C277.992 286.7 279.196 288.8 281.403 290L287.322 279.8C289.028 276.9 291.536 275.4 293.643 275.4C305.581 275.4 299.06 293.5 285.516 293.5C284.714 293.5 284.011 293.4 283.309 293.3L282.205 295.2C279.898 299.1 280.399 301.7 283.008 301.7C286.018 301.7 288.325 299.1 290.332 295.6L290.733 294.9H294.445L289.63 303.1C292.639 301.8 295.348 299.5 298.458 295.9L298.157 295.6C300.386 293.024 302.376 290.211 303.989 287.932C304.191 287.646 304.388 287.368 304.578 287.1L304.277 286.7C302.973 285 303.073 282.8 305.28 280.9L307.287 283.1C306.585 283.8 306.585 284.6 307.086 285.3L309.193 287.9C310.397 289.4 310.999 290.7 309.695 293L305.882 299.6C304.979 301.1 305.481 301.7 306.284 301.7C307.989 301.7 310.698 299.2 313.407 296L313.608 295.8L317.32 289.5C318.925 286.7 321.834 285.1 323.841 285.1C326.349 285.1 327.954 287.3 327.854 288.9H329.76L323.64 299.6C322.737 301.1 323.239 301.7 324.042 301.7C325.747 301.7 328.456 299.2 331.165 296L331.466 295.7C331.666 295.7 331.767 295.8 331.867 295.9L337.987 285.4H341.799L340.395 287.9C342.301 286 344.107 285.1 345.712 285.1C347.819 285.1 349.324 287.2 347.719 290.1L342.201 299.7C341.298 301.2 341.799 301.8 342.602 301.8C344.307 301.8 347.016 299.3 349.725 296.1L350.026 295.8C350.026 295.8 350.126 295.9 350.227 295.9L353.939 289.5C355.544 286.7 358.453 285.1 360.46 285.1C362.065 285.1 363.269 286 363.971 287.1L369.59 277.5H373.402L360.56 299.7C359.657 301.2 360.159 301.8 360.962 301.8C362.667 301.8 365.376 299.3 368.085 296.1ZM293.643 278.8C292.639 278.8 291.335 279.7 290.231 281.6L284.714 291.1H285.516C295.448 291.1 299.662 278.8 293.643 278.8ZM279.998 310.4C279.998 311.4 281.302 311.6 282.105 310.2L283.811 307.2C280.901 308.3 279.998 309.4 279.998 310.4ZM315.815 301.7C317.32 301.7 319.627 300 321.935 296.4L324.944 291.2C326.851 287.8 322.737 286.9 320.731 290.4L315.413 299.6C314.51 301.1 315.012 301.7 315.815 301.7ZM352.534 301.7C354.139 301.7 356.447 300 358.754 296.2L361.664 291.2C363.57 287.8 359.457 286.9 357.45 290.4L352.133 299.6C351.23 301.1 351.732 301.7 352.534 301.7ZM112.955 275.5C120.479 275.5 119.977 285.1 112.252 287.7C119.576 292.6 114.259 306.2 102.922 306.2C89.5785 306.2 87.1707 291.6 95.1968 286.5L96.7017 288.4C92.9896 290.8 92.2873 296.2 94.8958 299.8C95.4011 299.213 95.765 298.625 96.1655 297.979C96.2422 297.855 96.3201 297.729 96.4007 297.6L106.634 279.9C108.34 277 110.848 275.5 112.955 275.5ZM97.3036 302C98.8085 302.8 100.514 303.3 102.822 303.3C112.052 303.3 115.563 290.2 106.634 288.3L105.631 288.2L99.2098 299.3C98.6079 300.3 98.0059 301.2 97.3036 302ZM110.045 280.7L106.935 286C110.848 285.9 112.955 285.1 114.459 282.3C116.366 278.7 112.854 275.9 110.045 280.7ZM147.567 304.1C145.059 304.1 143.855 302.2 144.457 300C141.748 302.3 138.638 304.1 135.428 304.3C132.217 304.3 130.211 302.3 130.311 299.7C127.602 302.3 124.191 304.3 120.88 304.3C116.366 304.3 114.259 300.5 116.667 296.5L120.68 289.7C122.285 286.9 124.693 285.3 127.803 285.3C130.913 285.3 132.819 287.9 130.813 291.4L130.311 292.3C127.402 297.2 122.787 297.7 120.379 296.7L119.977 297.4C118.272 300.4 119.676 301.9 121.984 301.9C124.693 301.9 128.204 299.4 130.913 296.2L131.214 295.9C131.264 295.95 131.314 295.975 131.365 296C131.415 296.025 131.465 296.05 131.515 296.1L135.327 289.6C136.933 286.8 139.34 285.2 142.451 285.2C145.561 285.2 147.467 287.8 145.46 291.3L144.959 292.2H141.849L142.35 291.3C144.658 287.4 140.745 286.7 138.538 290.5L134.625 297.3C132.92 300.3 134.324 301.8 136.632 301.8C139.34 301.8 142.852 299.3 145.561 296.1L145.862 295.8C146.062 295.9 146.263 296 146.464 296.2L150.276 289.6C151.881 286.8 154.791 285.2 156.797 285.2C159.305 285.2 160.911 287.4 160.81 289H163.018L156.898 299.7C155.995 301.2 156.496 301.8 157.299 301.8C159.004 301.8 161.713 299.3 164.422 296.1L164.723 295.8C164.773 295.85 164.823 295.875 164.874 295.9C164.924 295.925 164.974 295.95 165.024 296L171.044 285.6H174.856L167.432 298.5L167.401 298.55C166.894 299.357 166.046 300.708 166.93 301.1C167.633 301.4 169.84 299.9 172.749 297.3L179.471 285.5H183.283L175.157 299.7C174.254 301.2 174.756 301.8 175.558 301.8C177.264 301.8 179.973 299.3 182.682 296.1L182.782 295.9L182.682 295.8C185.502 292.492 188.323 288.569 190.123 286.066L190.126 286.062C190.501 285.54 190.832 285.08 191.109 284.7L193.918 286.2C192.444 289.138 191.985 292.376 191.575 295.272C191.315 297.107 191.074 298.804 190.607 300.2C192.112 299.2 193.818 297.7 195.222 296.1L195.523 295.8H195.624L199.336 289.5C200.941 286.7 203.349 285.1 206.459 285.1C209.569 285.1 211.475 287.7 209.469 291.2L208.967 292.1C206.058 297 201.443 297.5 199.035 296.5L198.633 297.2C196.928 300.2 198.332 301.7 200.64 301.7C203.349 301.7 206.86 299.2 209.569 296L209.87 295.7C210.372 295.9 210.974 296.5 211.275 297C208.164 300.6 203.85 304 199.536 304C196.426 304 194.52 302.2 194.42 299.7C192.012 301.8 189.303 303.5 186.494 303.9H186.394C185.992 304 185.691 304 185.29 304C181.779 304 181.076 300.9 181.076 300.9L183.484 299.7C183.484 299.7 183.986 301.1 185.29 301.1C187.683 301.1 188.138 297.982 188.611 294.744C188.851 293.095 189.096 291.416 189.604 290.1C189.178 290.647 188.714 291.267 188.217 291.933L188.216 291.933C187.075 293.461 185.754 295.229 184.287 296.9C184.287 296.95 184.312 296.975 184.337 297C184.362 297.025 184.387 297.05 184.387 297.1C181.177 300.7 177.565 304.1 174.455 304.1C172.047 304.1 170.843 302.5 171.244 300.5C169.438 302.2 167.131 304.1 165.024 304.1C163.118 304.1 162.215 302.7 162.616 300.7C160.409 302.7 158.202 304.1 156.195 304.1C154.289 304.1 153.085 303.1 152.885 301.6C150.978 303.1 149.072 304.1 147.567 304.1ZM206.459 291.2C208.766 287.3 204.854 286.6 202.646 290.4L200.239 294.6C201.643 295.1 204.151 295.2 205.957 292.1L206.459 291.2ZM153.587 290.5L148.27 299.7C147.367 301.2 147.868 301.7 148.671 301.8C150.176 301.8 152.483 300.1 154.791 296.5L157.801 291.3C159.707 287.9 155.593 287 153.587 290.5ZM127.803 291.2C130.11 287.3 126.198 286.6 123.991 290.4L121.583 294.6C122.987 295.1 125.495 295.2 127.301 292.1L127.803 291.2ZM253.01 304.1C257.324 304.1 261.638 300.7 264.749 297.1C264.448 296.6 263.846 296 263.344 295.8L263.043 296.1C260.334 299.3 256.823 301.8 254.114 301.8C251.806 301.8 250.402 300.3 252.107 297.3L252.509 296.6C254.916 297.6 259.531 297.1 262.441 292.2L262.943 291.3C264.949 287.8 263.043 285.2 259.933 285.2C256.823 285.2 254.415 286.8 252.81 289.6L249.098 295.9C249.098 295.9 248.997 295.9 248.997 295.8L248.696 296.1C245.987 299.3 243.279 301.8 241.573 301.8C240.77 301.8 240.269 301.2 241.172 299.7L246.69 290.1C248.295 287.2 246.79 285.1 244.683 285.1C243.078 285.1 241.272 286 239.366 288L245.486 277.5H241.573L230.838 296C230.788 295.95 230.713 295.9 230.637 295.85C230.562 295.8 230.487 295.75 230.437 295.7L230.136 296C227.427 299.2 224.718 301.7 223.013 301.7C222.21 301.7 221.708 301.1 222.611 299.6L230.738 285.4H233.848L234.952 283.6H231.841L235.453 277.4H231.641L228.029 283.6H224.618L223.514 285.4H227.026L219.401 298.6C217.796 301.4 218.899 304 222.009 304C223.916 304 225.922 302.8 228.029 301L226.524 303.6H230.337L236.155 293.6C241.974 286.3 244.583 287.2 242.978 290L238.062 298.6C236.456 301.4 237.56 304 240.67 304C242.978 304 245.586 302.2 247.994 299.8C247.994 302.3 249.9 304.1 253.01 304.1ZM256.12 290.4C258.328 286.6 262.24 287.3 259.933 291.2L259.431 292.1C257.625 295.2 255.117 295.1 253.713 294.6L256.12 290.4ZM241.272 331.8L240.971 332.1C238.262 335.3 235.554 337.8 233.848 337.8C233.045 337.8 232.544 337.2 233.447 335.7L238.965 326.1C240.57 323.2 239.065 321.1 236.958 321.1C235.353 321.1 233.547 322 231.641 323.9L233.045 321.4H229.233L223.113 332C223.013 331.95 222.938 331.9 222.862 331.85C222.787 331.8 222.712 331.75 222.611 331.7L222.31 332C220.605 333.9 218.498 334.8 216.592 334.8L220.204 328.6C222.511 324.6 220.404 320.9 216.793 320.9C213.883 320.9 211.576 322.1 209.368 325.9L207.462 329.1L205.857 331.9C205.807 331.85 205.757 331.825 205.706 331.8L205.679 331.786C205.666 331.78 205.654 331.773 205.641 331.765C205.613 331.748 205.584 331.728 205.556 331.7L205.255 332C202.145 335.6 199.436 337.9 196.426 339.2L206.86 321.4H203.048L196.326 333.1C193.416 335.8 191.109 337.3 190.407 337C189.522 336.608 190.37 335.257 190.877 334.45L190.908 334.4L198.332 321.5H194.52L188.4 332C188.35 331.95 188.3 331.925 188.25 331.9C188.199 331.875 188.149 331.85 188.099 331.8L187.798 332.1C185.089 335.3 182.381 337.8 180.675 337.8C179.872 337.8 179.371 337.2 180.274 335.7L185.792 326.1C187.397 323.2 185.892 321.1 183.785 321.1C182.18 321.1 180.374 322 178.468 323.9L179.872 321.4H176.06L169.94 331.9C169.84 331.8 169.739 331.7 169.539 331.7L169.238 332C166.529 335.2 163.82 337.7 162.115 337.7C161.312 337.7 160.81 337.1 161.713 335.6L167.833 324.9H165.626C165.726 323.3 164.121 321.1 161.613 321.1C159.606 321.1 156.697 322.7 155.092 325.5L151.179 332.3C150.878 332.1 150.577 331.9 150.376 331.8L150.075 332.1C147.367 335.3 143.956 337.8 140.243 337.8C137.635 337.8 136.03 335.2 138.337 331.3L139.441 329.4C140.143 329.5 140.845 329.6 141.648 329.6C145.661 329.6 150.276 327.5 153.286 322.3C154.389 320.4 154.791 318.7 154.791 317.2C154.791 313.8 152.584 311.5 149.774 311.5C147.668 311.5 145.159 313 143.454 315.9L137.535 326.1C135.327 324.9 134.124 322.8 134.124 320.7C134.124 318.9 134.926 317.2 136.531 315.9L135.327 313.7C132.619 315.6 131.415 318.2 131.415 320.8C131.415 323.8 133.12 326.7 136.23 328.3L135.127 330.3C132.418 334.9 134.023 340 139.441 340C143.655 340 146.865 338.1 149.473 335.6C148.671 338 149.875 340 152.584 340C154.088 340 155.995 339 157.901 337.5C158.102 339 159.305 340 161.212 340C163.018 340 165.024 338.9 166.93 337.2L165.526 339.6H169.338L175.157 329.5C180.976 322.2 183.584 323.2 181.879 326L176.963 334.6C175.358 337.4 176.461 340 179.571 340C181.578 340 183.885 338.6 186.093 336.6C185.591 338.7 186.594 340 188.5 340C190.306 340 192.413 338.5 194.119 336.9L192.012 340.5C186.895 342 183.584 344.1 183.584 347C183.584 350.6 189.203 351.4 191.912 346.7L194.821 341.7C198.031 340.7 201.142 338.7 204.452 335.5C203.951 340.8 210.974 342 215.288 336.6H216.09C217.495 336.6 219.401 336.1 221.107 335.1L218.598 339.5H222.411L228.23 329.4C234.049 322.1 236.657 323.1 234.952 325.9L230.036 334.5C228.43 337.3 229.534 339.9 232.644 339.9C235.754 339.9 239.366 336.5 242.576 332.9C242.476 332.6 241.774 332 241.272 331.8ZM146.564 317.6C147.668 315.7 148.972 314.8 149.975 314.8C151.38 314.8 152.082 315.7 152.082 317.1C152.082 320.6 147.768 327 141.849 327H141.046L146.564 317.6ZM160.008 332.4C157.7 336 155.393 337.7 153.888 337.7C153.085 337.7 152.584 337.1 153.487 335.6L158.804 326.4C160.81 322.9 164.924 323.8 163.018 327.2L160.008 332.4ZM188.902 346.2C188.099 347.6 186.795 347.4 186.795 346.4C186.795 345.4 187.698 344.3 190.607 343.2L188.902 346.2ZM214.585 332H214.385C213.181 332 212.177 333 212.177 334.3C212.177 334.8 212.278 335.2 212.579 335.6V335.7C210.773 338.8 206.459 338.2 208.666 334.2L211.576 329.2L213.381 326.1C216.09 321.6 219.702 323.4 217.394 327.3L214.585 332ZM328.055 331.8C328.556 331.9 329.258 332.5 329.459 333.1C326.65 336.4 322.737 339.5 318.925 340.2H318.824C318.423 340.3 318.122 340.3 317.721 340.3H317.721C314.209 340.3 313.507 337.2 313.507 337.2L315.915 336C315.915 336 316.417 337.4 317.721 337.4C320.114 337.4 320.569 334.283 321.042 331.044C321.282 329.396 321.527 327.716 322.035 326.4C321.624 326.928 321.178 327.523 320.697 328.165C319.538 329.715 318.178 331.533 316.617 333.3C313.407 336.9 309.795 340.3 306.685 340.3C303.575 340.3 302.973 338.6 302.973 335.4V332.4L298.659 339.9H294.846L296.953 336.2C294.245 338.5 291.235 340.2 288.125 340.2C285.014 340.2 283.008 338.3 283.008 335.8C280.5 338.3 277.891 340.2 275.483 340.2C273.076 340.2 271.872 338.6 272.273 336.6C270.467 338.3 268.16 340.2 266.053 340.2C264.448 340.2 263.545 339.2 263.545 337.7C261.739 339 259.833 339.8 257.926 340.1H257.826C257.425 340.2 257.124 340.2 256.722 340.2C253.603 340.2 252.701 337.754 252.538 337.208C251.611 338.356 250.819 339.315 250.302 339.9C250.207 339.825 250.109 339.749 250.009 339.673C249.583 339.346 249.141 339.006 248.897 338.6C252.408 334.6 261.137 323 262.742 320.8L265.551 322.3C264.077 325.239 263.618 328.476 263.208 331.372C262.948 333.207 262.707 334.904 262.24 336.3C262.544 336.041 262.886 335.762 263.241 335.473L263.249 335.467L263.251 335.465L263.252 335.464C263.713 335.088 264.197 334.694 264.648 334.3L272.072 321.6H275.885L268.461 334.5L268.429 334.55C267.923 335.358 267.075 336.709 267.959 337.1C268.661 337.4 270.868 335.9 273.778 333.3L280.5 321.5H284.312L276.186 335.7C275.283 337.2 275.784 337.8 276.587 337.8C278.293 337.8 281.001 335.3 283.71 332.1L284.011 331.8C284.011 331.8 284.112 331.9 284.212 331.9L287.924 325.5C289.529 322.7 291.937 321.1 295.047 321.1C298.157 321.1 300.063 323.7 298.057 327.2L297.555 328.1H294.445L294.947 327.2C297.254 323.3 293.342 322.6 291.134 326.4L287.222 333.2C285.516 336.2 286.921 337.7 289.228 337.7C291.937 337.7 295.448 335.2 298.157 332L298.458 331.7C298.659 331.8 298.96 332 299.16 332.2L309.996 313.4H313.808L308.391 322.8C312.303 319.2 318.022 321.2 314.51 327.3L313.507 329.1C311.701 332.2 308.892 333.9 306.183 333.6V335.2C306.183 337 306.986 337.8 307.789 337.8C309.494 337.8 312.203 335.3 314.912 332.1L315.213 331.8C318.034 328.493 320.854 324.569 322.654 322.067L322.654 322.066C323.031 321.543 323.362 321.081 323.64 320.7L326.449 322.2C324.975 325.139 324.516 328.376 324.106 331.272C323.846 333.107 323.605 334.804 323.138 336.2C324.643 335.2 326.349 333.7 327.754 332.1L328.055 331.8ZM252.702 337.004L254.917 335.9C254.917 335.9 255.418 337.3 256.722 337.3C259.116 337.3 259.571 334.183 260.043 330.944C260.284 329.296 260.529 327.616 261.036 326.3C260.056 327.654 255.727 333.249 252.702 337.004ZM305.28 328.2L304.177 330.1C305.08 332.6 308.391 331.2 309.494 329.2L311.3 326.1C312.705 323.8 309.695 322.1 305.28 328.2ZM329.359 335.7C328.155 335.7 327.152 336.7 327.152 337.9C327.152 339.1 328.055 340.1 329.359 340.1C330.563 340.1 331.566 339.2 331.566 337.9C331.566 336.7 330.563 335.7 329.359 335.7ZM333.372 334.2H329.559L341.498 313.5H345.311L333.372 334.2ZM358.554 335.6C358.453 335.9 358.353 336.2 358.353 336.5C358.353 337.2 358.654 337.8 359.156 338.1C359.657 338.5 360.159 338.7 360.861 338.7C360.861 339.1 360.761 339.4 360.56 339.7C360.359 340 360.159 340.3 359.858 340.5C359.557 340.7 359.256 340.9 358.955 341C358.745 341.139 358.535 341.23 358.359 341.306C358.283 341.339 358.213 341.37 358.152 341.4L359.557 343.4C359.619 343.338 359.681 343.315 359.767 343.282C359.82 343.262 359.882 343.238 359.958 343.2C360.033 343.163 360.108 343.112 360.187 343.057C360.322 342.965 360.472 342.863 360.66 342.8C360.961 342.7 361.262 342.5 361.563 342.3C361.864 342.1 362.165 341.8 362.366 341.6C362.968 341.1 363.369 340.4 363.67 339.7C363.971 338.9 364.172 338.2 364.172 337.3C364.172 336.8 364.072 336.4 363.971 336L363.971 336C363.929 335.917 363.892 335.837 363.856 335.762C363.72 335.475 363.607 335.237 363.369 335C363.068 334.7 362.667 334.5 362.266 334.3C361.864 334.1 361.463 334 360.961 334C360.56 334 360.159 334.1 359.858 334.2L359.857 334.201C359.556 334.4 359.256 334.6 359.055 334.8C358.855 335 358.654 335.3 358.554 335.6ZM350.728 335.6C350.628 335.9 350.527 336.2 350.527 336.5C350.527 337.2 350.728 337.8 351.33 338.1C351.832 338.5 352.333 338.7 353.036 338.7C353.036 339.1 352.935 339.4 352.735 339.7C352.534 340 352.333 340.3 352.032 340.5C351.731 340.7 351.43 340.9 351.129 341C350.828 341.2 350.628 341.3 350.327 341.4L351.731 343.4C351.793 343.338 351.855 343.315 351.941 343.282C351.994 343.262 352.056 343.238 352.133 343.2C352.207 343.163 352.282 343.112 352.362 343.057C352.497 342.965 352.646 342.863 352.835 342.8C353.136 342.7 353.437 342.5 353.738 342.3C354.039 342.1 354.34 341.8 354.541 341.6C355.143 341.1 355.544 340.4 355.845 339.7C356.146 338.9 356.346 338.2 356.346 337.3C356.346 336.8 356.246 336.4 356.146 336C355.945 335.6 355.744 335.3 355.544 335C355.243 334.7 354.842 334.5 354.44 334.3C354.039 334.1 353.638 334 353.136 334C352.735 334 352.333 334.1 352.032 334.2L352.032 334.201C351.731 334.4 351.43 334.6 351.23 334.8C351.029 335 350.828 335.3 350.728 335.6Z" fill="white"/>
</g>
<defs>
<filter id="filter0_d_1335_236" x="0" y="0" width="469" height="357.965" filterUnits="userSpaceOnUse" color-interpolation-filters="sRGB">
<feFlood flood-opacity="0" result="BackgroundImageFix"/>
<feColorMatrix in="SourceAlpha" type="matrix" values="0 0 0 0 0 0 0 0 0 0 0 0 0 0 0 0 0 0 127 0" result="hardAlpha"/>
<feOffset dy="4"/>
<feGaussianBlur stdDeviation="2"/>
<feComposite in2="hardAlpha" operator="out"/>
<feColorMatrix type="matrix" values="0 0 0 0 0 0 0 0 0 0 0 0 0 0 0 0 0 0 0.25 0"/>
<feBlend mode="normal" in2="BackgroundImageFix" result="effect1_dropShadow_1335_236"/>
<feBlend mode="normal" in="SourceGraphic" in2="effect1_dropShadow_1335_236" result="shape"/>
</filter>
</defs>
</svg>
